<?xml version="1.0" encoding="UTF-8" standalone="no"?>
<!DOCTYPE svg PUBLIC "-//W3C//DTD SVG 1.1//EN" "http://www.w3.org/Graphics/SVG/1.1/DTD/svg11.dtd">
<svg width="100%" height="100%" viewBox="0 0 365 349" version="1.1" xmlns="http://www.w3.org/2000/svg" xmlns:xlink="http://www.w3.org/1999/xlink" xml:space="preserve" xmlns:serif="http://www.serif.com/" style="fill-rule:evenodd;clip-rule:evenodd;stroke-linejoin:round;stroke-miterlimit:2;">
    <g transform="matrix(1,0,0,1,-475,1)">
        <g>
            <g transform="matrix(0.965926,-0.258819,0.258819,0.965926,-16.19,190.8)">
                <rect x="626.23" y="18.66" width="180.63" height="276.48" style="fill:rgb(244, 157, 113);"/>
            </g>
            <g transform="matrix(0.965926,-0.258819,0.258819,0.965926,-32.98,151.41)">
                <rect x="509.41" y="62.32" width="98.26" height="277.3" style="fill:rgb(150,42,90);"/>
            </g>
            <g transform="matrix(0.965926,-0.258819,0.258819,0.965926,-26.74,166.29)">
                <rect x="605.49" y="46.03" width="25.39" height="277.3" style="fill:white;"/>
            </g>
            <path d="M736.89,238.09C751.82,246.14 738.5,269.59 723.92,260.79L643.95,220.14C637.7,216.48 635.16,207.14 638.67,200.82C642.52,197.04 688.73,116.07 694.79,119.02C705.54,115.65 715.65,128.53 709.59,138.14L668.24,203.13L736.88,238.09L736.89,238.09Z" style="fill:white;fill-rule:nonzero;"/>
        </g>
    </g>
</svg>
